# xmcd
#
# Track frame offsets: 
#        150
#        20077
#        40756
#        60098
#        81673
#        99222
#        112934
#        128259
#        141648
#        155545
#        178332
#        190689
#        207831
#        224141
#
# Disc length: 3213 seconds
#
# Revision: 10
# Processed by: cddbd v1.5.2PL0 Copyright (c) Steve Scherf et al.
# Submitted via: ExactAudioCopy v1.3
#
DISCID=c40c8b0e
DTITLE=Renaud - Boucan D'enfer
DYEAR=2002
DGENRE=Blues
TTITLE0=Docteur Renaud, Mister Renard
TTITLE1=Petit Pédé
TTITLE2=Je Vis Caché
TTITLE3=Coeur Perdu
TTITLE4=Manhatan - Kaboul
TTITLE5=Elle A Vu Le Loup
TTITLE6=Tout ArrêTer...
TTITLE7=Baltique
TTITLE8=L'entarté
TTITLE9=Boucan d'enfer
TTITLE10=Mon Nain De Jardin
TTITLE11=Mal Barrés
TTITLE12=Corsic'armes
TTITLE13=Mon Bistrot Préféré
EXTD=YEAR: 2002
EXTT0=
EXTT1=
EXTT2=
EXTT3=
EXTT4=
EXTT5=
EXTT6=
EXTT7=
EXTT8=
EXTT9=
EXTT10=
EXTT11=
EXTT12=
EXTT13=
PLAYORDER=
